<svg xmlns="http://www.w3.org/2000/svg" width="400" height="400" viewBox="0 0 400 400">
    <path fill="#00B87A" fill-rule="evenodd" d="M138.138 286.075c12.347-20.731 152.558-76.014 71.859-163.459-12.096-16.67-21.277-34.743-25.502-55.057-1.56-7.481-.758-14.548 2.371-21.327 3.793-8.214 10.198-12.414 19.649-10.942 9.317 1.454 14.547 7.18 15.661 16.094.561 4.464-.138 9.159-.785 13.676-.51 3.56-.918 7.114-1.14 10.655-.567 9.066.084 18.049 3.346 26.854 5.4 14.581 15.811 19.236 30.526 13.773 6.894-2.56 13.325-6.266 20.824-7.263 25.532-3.39 44.064 7.562 56.687 28.316 19.672 32.333 21.997 67.86 14.225 103.588-2.806 12.9-6.823 25.14-11.974 36.74-12.463 28.069-31.563 52.384-56.206 73.194-16.248 13.722-33.927 18.018-54.075 9.74-16.311-6.704-32.508-6.303-48.817.197-17.699 7.051-34.37 5.351-49.235-6.972-49.447-40.99-78.59-91.73-75.3-157.063 2.454-48.676 36.495-85.501 83.271-90.93 25.633-2.977 46.56 6.03 61.924 26.83 2.942 3.985 5.041 7.055-.846 11.123-31.246 21.588-48.79 50.095-60.082 93.076-3.169-23.795 2.703-45.37 13.736-65.925 5.115-9.534 18.184-24.378 25.599-32.339-74.78-48.372-128.527 80.621-35.716 147.42z"/>
</svg>
